<svg width="286" height="184" viewBox="0 0 286 184" fill="none" xmlns="http://www.w3.org/2000/svg">
<path d="M216.795 73.5553C218.089 74.1931 219.507 74.5412 220.95 74.5753C221.031 74.566 221.109 74.5407 221.18 74.5009C221.251 74.4611 221.314 74.4075 221.364 74.3433C221.414 74.2791 221.451 74.2055 221.473 74.1269C221.495 74.0482 221.5 73.9661 221.49 73.8853C221.37 72.9403 220.305 73.7503 217.35 72.3853L217.5 71.2753C217.575 70.9603 217.2 70.4503 216.795 70.6003C216.39 70.7503 216.285 71.2303 216.165 72.1003C216.045 72.9703 215.985 73.1503 216.795 73.5553ZM60.2248 77.8153C62.0299 77.3245 63.725 76.4947 65.2198 75.3703C65.8048 74.9203 65.6098 73.8703 65.4448 73.2703C65.3979 73.1146 65.2951 72.9818 65.1562 72.8972C65.0173 72.8127 64.8521 72.7824 64.6923 72.8121C64.5324 72.8419 64.3892 72.9295 64.29 73.0584C64.1908 73.1872 64.1427 73.3481 64.1548 73.5103C64.1833 73.8354 64.2436 74.1569 64.3348 74.4703C60.7798 77.0653 59.3998 76.4203 59.6098 77.4703C59.6565 77.5901 59.7433 77.6901 59.8555 77.753C59.9677 77.8159 60.0982 77.8379 60.2248 77.8153ZM56.1448 75.0403C59.1448 75.0403 58.1248 73.2703 57.3148 73.5403L56.1598 73.7203C55.1698 69.0253 55.9648 68.0353 55.1098 68.0053C54.9809 67.9969 54.8538 68.0393 54.7557 68.1234C54.6576 68.2075 54.5963 68.3266 54.5848 68.4553C54.4789 70.31 54.615 72.1707 54.9898 73.9903C55.1548 74.8003 55.4548 75.0403 56.1448 75.0403ZM143.25 72.4603C144.105 72.4603 148.605 71.4853 149.37 71.3653C150.495 71.1703 151.83 70.8253 151.92 69.6103C151.92 68.8603 151.38 67.9903 150.765 68.4403C150.637 68.5301 150.542 68.6598 150.496 68.8092C150.45 68.9585 150.455 69.1189 150.51 69.2653C150.735 69.8503 150.255 69.8053 143.01 71.3803C142.877 71.4214 142.764 71.5112 142.694 71.6318C142.624 71.7523 142.602 71.8948 142.632 72.0309C142.662 72.167 142.743 72.2867 142.857 72.3662C142.972 72.4458 143.112 72.4794 143.25 72.4603ZM44.5948 35.7403C44.9248 36.1153 45.7348 35.7403 45.4948 35.1703C43.9948 31.5103 41.2348 27.4303 39.4948 23.4103C39.2248 22.7653 38.6848 21.6703 38.1598 21.6103C38.0941 21.601 38.0271 21.6101 37.9662 21.6366C37.9053 21.6631 37.8529 21.7059 37.8148 21.7603C37.4848 22.2103 37.9648 23.4553 38.1898 23.9803C38.8798 25.4653 42.2248 33.0253 44.5948 35.7403ZM93.2248 29.4103C93.2529 29.5274 93.3112 29.6351 93.3939 29.7227C93.4765 29.8103 93.5806 29.8748 93.6959 29.9096C93.8112 29.9445 93.9336 29.9486 94.0509 29.9215C94.1683 29.8945 94.2765 29.8371 94.3648 29.7553C95.6033 28.6276 96.7286 27.3817 97.7248 26.0353C102.225 40.4353 102.225 40.9453 102.93 40.9453C103.031 40.9424 103.13 40.9179 103.221 40.8733C103.312 40.8288 103.392 40.7652 103.456 40.687C103.52 40.6087 103.566 40.5176 103.592 40.4198C103.618 40.3221 103.622 40.2199 103.605 40.1203C101.925 34.8103 100.155 29.6203 98.6248 24.3253C98.5905 24.1937 98.5181 24.0751 98.4167 23.9846C98.3153 23.894 98.1893 23.8354 98.0547 23.8162C97.9201 23.7969 97.7828 23.8179 97.66 23.8765C97.5373 23.935 97.4346 24.0285 97.3648 24.1453C96.5035 25.5001 95.4976 26.7575 94.3648 27.8953C93.4648 23.7853 91.3648 14.3953 91.3648 14.3953C91.327 14.2441 91.2308 14.1141 91.0971 14.0339C90.9635 13.9538 90.8035 13.93 90.6523 13.9678C90.5012 14.0056 90.3712 14.1019 90.291 14.2355C90.2108 14.3691 90.187 14.5291 90.2248 14.6803C90.7348 17.0053 92.9098 28.3753 93.2248 29.4103ZM15.0898 107.44C10.2598 105.13 5.95483 102.76 1.00483 100.15C0.044834 99.6403 -0.615166 101.395 0.884834 101.8C5.20657 104.498 9.81489 106.706 14.6248 108.385C15.2248 108.55 15.6448 107.77 15.0898 107.44ZM18.9298 72.8053C19.0329 72.8965 19.1615 72.954 19.2982 72.9701C19.435 72.9862 19.5734 72.9601 19.6948 72.8953C20.6848 72.4153 19.4098 71.2303 19.8898 64.1053C32.0548 78.7903 31.3798 78.4153 31.8898 78.4153C31.9954 78.4218 32.1007 78.3981 32.1933 78.3469C32.2858 78.2956 32.3618 78.2189 32.4123 78.1259C32.4627 78.0329 32.4855 77.9274 32.478 77.8219C32.4705 77.7164 32.4329 77.6152 32.3698 77.5303C30.4648 75.1303 22.1248 64.7653 19.9048 61.9453C19.8213 61.8395 19.7093 61.7598 19.5819 61.7158C19.4546 61.6717 19.3173 61.6651 19.1863 61.6967C19.0553 61.7282 18.9361 61.7967 18.8428 61.8939C18.7495 61.9911 18.686 62.1131 18.6598 62.2453C18.3549 64.9847 18.3047 67.7465 18.5098 70.4953C14.0098 66.4603 9.70483 62.1853 5.15983 58.2553C5.02224 58.1448 4.85012 58.0865 4.67374 58.0904C4.49736 58.0943 4.32801 58.1603 4.19546 58.2767C4.06291 58.3931 3.97565 58.5526 3.94902 58.727C3.92238 58.9014 3.95808 59.0796 4.04983 59.2303C5.81983 61.9753 15.8098 69.9703 18.9298 72.8053ZM137.25 17.1703C137.25 17.3175 137.308 17.4586 137.412 17.5627C137.516 17.6668 137.658 17.7253 137.805 17.7253C137.952 17.7253 138.093 17.6668 138.197 17.5627C138.301 17.4586 138.36 17.3175 138.36 17.1703C138.617 11.6607 138.386 6.13914 137.67 0.67026C137.654 0.525963 137.597 0.389244 137.506 0.276675C137.414 0.164106 137.292 0.080522 137.154 0.0360628C137.016 -0.00839649 136.868 -0.0118218 136.728 0.026198C136.588 0.0642177 136.462 0.142051 136.365 0.250262C135.69 1.12026 137.31 3.86526 137.25 17.1703ZM177.84 43.2253C189.255 23.9653 188.64 24.9253 188.55 24.5803C188.295 23.7103 187.575 24.1303 181.8 25.8703C183.3 20.5453 185.175 14.8603 186.42 9.47526C186.446 9.30113 186.405 9.12363 186.307 8.97766C186.209 8.83168 186.059 8.72779 185.888 8.68643C185.717 8.64506 185.537 8.66921 185.382 8.75411C185.228 8.83902 185.111 8.97855 185.055 9.14526C183.36 15.1453 181.68 21.0103 180.06 26.7703C180.034 26.8893 180.038 27.0131 180.073 27.1299C180.108 27.2468 180.171 27.3529 180.258 27.4384C180.345 27.5238 180.453 27.5858 180.57 27.6185C180.687 27.6512 180.811 27.6535 180.93 27.6253C180.93 27.6253 184.905 26.3953 186.51 25.8703L176.925 42.7153C176.868 42.8356 176.859 42.973 176.9 43.0996C176.941 43.2262 177.028 43.3327 177.144 43.3974C177.26 43.4622 177.397 43.4804 177.526 43.4485C177.655 43.4165 177.767 43.3367 177.84 43.2253ZM285.09 87.2203C284.31 86.8453 269.88 95.8153 269.73 95.9203C269.205 96.2953 269.73 97.2253 270.27 96.9403C271.14 96.5503 284.925 88.8853 285.39 88.0603C285.425 87.9854 285.446 87.9043 285.45 87.8216C285.454 87.7388 285.442 87.6561 285.414 87.578C285.386 87.5 285.343 87.4282 285.288 87.3668C285.232 87.3055 285.165 87.2556 285.09 87.2203ZM246.9 70.0753C246.9 70.0753 261.36 59.0503 264.06 56.9503C264.645 56.4853 264.06 55.4503 263.37 55.5253C260.648 55.5901 257.937 55.8963 255.27 56.4403C259.142 52.3097 262.57 47.785 265.5 42.9403C265.995 42.1303 264.795 41.2903 264.315 42.1153C261.01 47.506 257.078 52.4858 252.6 56.9503C252.12 57.4153 252.42 58.5553 253.2 58.4503C255.847 57.7761 258.547 57.3245 261.27 57.1003C261.27 57.1003 249.81 66.3253 246.27 69.2503C246.21 69.3459 246.181 69.4574 246.187 69.57C246.192 69.6825 246.232 69.7907 246.3 69.8803C246.368 69.9698 246.462 70.0364 246.57 70.0713C246.677 70.1061 246.792 70.1075 246.9 70.0753ZM226.215 26.6503C235.425 10.7803 237.03 8.47026 235.485 8.08026C234.825 7.91526 234.855 7.97526 225.18 26.0803C225.134 26.2137 225.137 26.3589 225.188 26.4903C225.239 26.6218 225.335 26.7311 225.458 26.7991C225.582 26.8671 225.725 26.8894 225.864 26.8622C226.002 26.835 226.126 26.76 226.215 26.6503Z" fill="black"/>
<path d="M268.725 124.555C262.605 105.25 247.14 90.4002 226.26 83.8302C226.246 83.4479 226.206 83.067 226.14 82.6902C231.84 80.2002 233.115 71.6352 231.855 64.1802C232.95 62.3952 235.86 53.2152 233.715 54.4752L229.8 56.7852C229.245 55.2852 228.6 53.8902 227.91 52.5102C228.06 50.1102 225.87 45.8202 222.015 43.0152C218.475 40.4352 212.385 38.1252 203.505 41.8152C196.575 44.6952 188.76 51.0552 187.575 60.2952C186.075 72.2952 190.05 78.1152 182.625 89.2602C174.421 85.5453 165.675 83.1653 156.72 82.2102C156.72 81.5379 156.675 80.8664 156.585 80.2002C160.41 78.2652 161.22 71.9652 161.385 69.9102C165.885 66.0102 166.41 58.2402 162.885 58.0602C163.791 52.4938 164.137 46.8507 163.92 41.2152C163.725 37.7202 162.225 36.9402 161.535 36.7902C161.048 36.6981 160.545 36.7449 160.083 36.9253C159.622 37.1057 159.22 37.4123 158.925 37.8102C157.8 35.5152 155.64 35.8002 154.425 37.5402C154.306 36.9226 153.995 36.3582 153.538 35.9266C153.08 35.4951 152.498 35.2183 151.875 35.1354C151.251 35.0525 150.618 35.1677 150.063 35.4646C149.509 35.7615 149.061 36.2253 148.785 36.7902C148.494 36.1709 148.026 35.6521 147.439 35.2997C146.853 34.9472 146.175 34.7771 145.492 34.8108C144.808 34.8446 144.151 35.0808 143.602 35.4893C143.053 35.8978 142.638 36.4603 142.41 37.1052C140.91 33.8502 137.085 34.6002 136.23 37.9002C135.105 35.3652 132.03 35.3802 130.965 38.3202C128.16 36.2502 125.955 38.3202 125.505 41.7252C125.232 47.5151 125.473 53.3178 126.225 59.0652C121.14 57.9252 125.1 69.8352 128.13 70.1202C128.655 74.6202 130.515 79.5702 134.13 80.7702C134.13 81.3702 134.04 81.9852 134.04 82.5852C124.341 84.134 115.008 87.4434 106.5 92.3502C101.82 89.0502 91.4099 84.5652 81.4049 85.3902C79.592 81.5602 78.228 77.5334 77.3399 73.3902C76.6799 69.7752 78.3749 68.3502 78.3599 65.2302C80.302 61.3164 80.7859 56.8386 79.7249 52.6002C74.9999 37.6002 46.4549 43.3002 47.2649 59.7702C47.3699 61.6452 47.5349 63.5202 47.6999 64.9752C44.1749 66.0402 44.6999 66.2952 45.6749 70.5852C46.1999 72.9252 46.7999 74.8602 49.2599 74.3502C50.3849 79.2252 53.2199 87.0102 59.9099 87.0102C60.3149 87.0102 59.9099 86.7552 60.2849 89.2752C43.4999 96.5802 22.4249 110.275 16.9649 134.275C15.6448 140.065 14.8499 148.285 18.6299 154.495C22.7849 161.41 30.1349 161.845 35.4149 161.5C34.179 168.291 33.781 175.208 34.2299 182.095C34.2326 182.191 34.2617 182.285 34.314 182.366C34.3664 182.447 34.4399 182.511 34.5266 182.553C34.6133 182.595 34.7099 182.612 34.8057 182.603C34.9015 182.593 34.9929 182.558 35.0699 182.5C35.8799 182.02 34.2899 181.51 36.8249 161.395C50.9549 160.09 64.4249 154.015 76.8749 147.625C78.9299 149.125 80.9699 150.625 83.0849 151.975C84.8237 155.491 87.4884 158.466 90.7922 160.581C94.096 162.695 97.9138 163.869 101.835 163.975C101.46 170.29 101.46 176.621 101.835 182.935C101.84 183.012 101.861 183.086 101.896 183.154C101.931 183.222 101.98 183.282 102.038 183.331C102.097 183.38 102.165 183.417 102.239 183.439C102.312 183.461 102.389 183.468 102.465 183.46C103.755 183.34 102.09 182.695 103.11 163.96C115.59 163.96 125.835 155.815 136.11 149.59C148.2 155.125 177.84 165.43 193.515 162.46C194.235 168.85 194.13 174.91 194.745 181.09C194.765 181.201 194.823 181.301 194.909 181.374C194.996 181.446 195.105 181.486 195.217 181.486C195.33 181.486 195.439 181.446 195.525 181.374C195.612 181.301 195.67 181.201 195.69 181.09C196.084 174.776 195.827 168.437 194.925 162.175C205.8 159.595 212.475 151.93 214.245 140.02C214.965 139.54 215.745 139 216.555 138.385C225.84 142.09 245.055 151.105 254.445 151.435C254.01 158.41 253.395 165.775 253.29 173.005C253.311 173.127 253.374 173.238 253.469 173.318C253.564 173.398 253.683 173.442 253.807 173.442C253.931 173.442 254.051 173.398 254.146 173.318C254.241 173.238 254.304 173.127 254.325 173.005C254.535 171.01 255.9 153.985 255.825 151.39C270.855 151.045 273.225 138.745 268.725 124.555ZM161.685 60.4452C162.09 59.9052 162.315 59.2752 162.9 59.4552C165 60.0702 163.32 65.2902 161.565 67.6152C161.715 65.2302 161.76 62.8152 161.685 60.4452ZM125.88 60.4452C126.36 60.4452 126.3 60.6552 127.38 60.8652L127.98 68.2752C125.76 66.2202 124.155 60.4752 125.88 60.4752V60.4452ZM230.1 58.9452C230.164 58.7343 230.308 58.5574 230.502 58.4533C230.697 58.3493 230.924 58.3265 231.135 58.3902C231.346 58.4538 231.523 58.5986 231.627 58.7927C231.731 58.9868 231.754 59.2143 231.69 59.4252C231.165 61.2852 230.76 62.6352 230.415 63.9252C230.326 64.0857 230.201 64.2234 230.05 64.3275C229.9 64.4317 229.726 64.4993 229.545 64.5252C228.225 64.5702 229.635 60.2952 230.1 58.9152V58.9452ZM204.855 64.9452C205.71 64.3002 206.745 65.1252 206.91 65.1402C208.32 66.0402 209.91 64.7352 209.505 64.3602L209.205 64.1202C208.095 63.2502 205.815 61.4502 206.295 60.2202C206.655 59.2902 208.125 59.4252 209.085 59.3802C209.119 59.3792 209.152 59.3704 209.183 59.3545C209.213 59.3387 209.239 59.3162 209.259 59.2888C209.279 59.2613 209.293 59.2296 209.299 59.1961C209.306 59.1625 209.304 59.1281 209.295 59.0952C209.145 58.6152 208.965 58.1352 208.785 57.5952C214.454 54.7837 220.669 53.2477 226.995 53.0952C227.64 54.5952 228.195 56.0202 228.69 57.4302C226.815 58.4952 224.685 59.6652 224.19 61.7952C223.744 61.7398 223.292 61.7852 222.866 61.928C222.44 62.0708 222.052 62.3073 221.73 62.6202C219.375 59.7852 209.625 60.0252 207.66 60.1002C205.125 60.2052 211.815 65.3202 213.66 66.7602C219.855 71.5752 223.905 68.2602 222.36 63.8652C222.576 63.5996 222.861 63.3979 223.183 63.2817C223.506 63.1654 223.854 63.139 224.19 63.2052C224.246 63.4902 224.337 63.7673 224.46 64.0302C224.385 63.9932 224.303 63.9739 224.22 63.9739C224.137 63.9739 224.054 63.9932 223.98 64.0302C223.365 64.4202 223.98 64.9452 225.39 67.4502C225.216 67.6271 225.03 67.7924 224.835 67.9452C224.265 68.3652 224.76 70.1952 226.665 67.9452C226.95 67.6002 226.41 66.5952 225.81 65.7102C226.534 66.2037 227.402 66.4421 228.276 66.3878C229.151 66.3335 229.982 65.9895 230.64 65.4102C231.296 69.4373 230.924 73.5648 229.56 77.4102C228.06 81.0852 224.295 81.2952 225.06 82.6902C225.258 87.6356 224.855 92.5868 223.86 97.4352C220.005 96.5952 212.415 87.1902 209.385 82.8252C209.699 79.1778 209.228 75.5056 208.005 72.0552C207 70.3152 205.005 69.5202 204.48 67.5552C204.275 67.117 204.201 66.6288 204.268 66.1497C204.335 65.6706 204.538 65.221 204.855 64.8552V64.9452ZM227.595 62.4402C227.43 62.9352 227.325 63.6252 226.785 63.6252C226.245 63.6252 225.975 62.9952 226.035 62.4552C226.095 61.9152 226.245 60.6702 226.815 60.3402C226.924 60.286 227.045 60.2578 227.167 60.2578C227.29 60.2578 227.41 60.286 227.52 60.3402C228.225 60.5352 227.85 61.5852 227.595 62.3502V62.4402ZM219.51 65.8902C219.345 66.2952 219.18 67.0302 218.7 67.2552C218.616 67.2963 218.523 67.3176 218.43 67.3176C218.336 67.3176 218.244 67.2963 218.16 67.2552C217.26 66.9252 218.25 63.5802 219.06 62.9352C219.131 62.8632 219.218 62.8102 219.315 62.7811C219.411 62.752 219.514 62.7477 219.613 62.7686C219.711 62.7896 219.803 62.8351 219.879 62.9009C219.956 62.9667 220.015 63.0507 220.05 63.1452C220.365 63.8352 219.6 65.5752 219.51 65.8002V65.8902ZM216.225 64.4352C216.03 64.8252 215.94 65.1852 215.43 65.1852C215.31 65.1935 215.19 65.1723 215.08 65.1233C214.97 65.0744 214.874 64.9992 214.8 64.9045C214.726 64.8097 214.676 64.6982 214.655 64.5798C214.634 64.4613 214.643 64.3396 214.68 64.2252C214.845 63.7302 215.025 62.6052 215.625 62.3052C215.72 62.2613 215.823 62.2373 215.928 62.2348C216.032 62.2324 216.136 62.2514 216.233 62.2908C216.331 62.3301 216.418 62.389 216.492 62.4637C216.565 62.5385 216.622 62.6274 216.66 62.7252C216.87 63.2202 216.525 63.8952 216.225 64.4352ZM208.725 83.6652C212.985 91.0152 224.205 101.665 225.075 98.0952C226.056 93.8573 226.51 89.5144 226.425 85.1652C246.975 92.4252 260.925 105.73 267 123.685C262.603 121.586 257.771 120.558 252.9 120.685C252.69 115.75 245.925 106.21 243.33 103.345C242.805 102.76 241.83 103.51 242.4 104.095C246.291 108.501 249.268 113.635 251.16 119.2C243.81 113.665 229.005 105.94 208.71 112.3C203.445 103.313 195.757 95.9888 186.525 91.1652C193.168 86.8207 200.808 84.2396 208.725 83.6652ZM130.5 49.8252C139.52 47.3631 148.998 47.0906 158.145 49.0302C157.991 51.5722 158.071 54.1229 158.385 56.6502H158.115C156.87 50.9202 148.89 49.1502 146.205 55.1502C144.833 54.685 143.346 54.685 141.975 55.1502C139.38 49.7502 131.865 51.4902 130.485 56.8302H130.2C130.515 54.5094 130.616 52.1644 130.5 49.8252ZM150.9 62.1702C151.17 61.4052 153.6 55.7352 155.175 55.5702C155.306 55.5685 155.436 55.5981 155.553 55.6566C155.67 55.715 155.772 55.8005 155.85 55.9061C155.927 56.0116 155.979 56.1342 156 56.2636C156.021 56.393 156.01 56.5255 155.97 56.6502C154.631 58.5577 153.437 60.5634 152.4 62.6502C152.025 63.5802 150.555 63.2202 150.9 62.1702ZM148.725 60.0702C148.545 60.5202 147.735 60.7902 147.45 60.2652C147.165 59.7402 147.855 57.7452 149.805 54.8202C150.3 54.0852 150.765 53.7252 151.17 53.7852C151.302 53.8228 151.422 53.8922 151.521 53.9871C151.62 54.0821 151.694 54.1998 151.737 54.33C151.78 54.4602 151.79 54.5989 151.767 54.734C151.744 54.8691 151.688 54.9966 151.605 55.1052C150.463 56.648 149.497 58.3133 148.725 60.0702ZM135.675 62.5602C136.32 61.1502 137.04 59.7252 137.73 58.3302C137.804 58.1956 137.912 58.0834 138.044 58.0052C138.176 57.927 138.326 57.8857 138.48 57.8857C138.633 57.8857 138.784 57.927 138.916 58.0052C139.048 58.0834 139.156 58.1956 139.23 58.3302C139.324 58.4726 139.374 58.6395 139.374 58.8102C139.374 58.9809 139.324 59.1478 139.23 59.2902C138.57 60.5952 137.895 61.9602 137.175 63.2802C136.605 64.0302 135.225 63.4602 135.675 62.5602ZM133.86 60.6702L133.77 60.7752C133.305 61.4502 132.135 61.0152 132.45 60.1602C133.316 57.8555 134.422 55.6484 135.75 53.5752C136.395 52.7952 137.7 53.4702 137.25 54.3852C136.185 56.5152 134.88 58.5102 133.86 60.6702ZM128.505 60.8052C129.465 60.4002 129.735 59.3052 130.005 58.3602L130.32 58.2702C130.241 59.3108 130.369 60.3567 130.696 61.3478C131.023 62.3389 131.543 63.2556 132.225 64.0452C133.034 64.8397 134.048 65.3938 135.153 65.6457C136.259 65.8977 137.413 65.8375 138.486 65.4719C139.559 65.1063 140.51 64.4498 141.232 63.5754C141.954 62.7011 142.419 61.6433 142.575 60.5202C142.42 61.9647 142.355 63.4175 142.38 64.8702C142.38 65.7702 142.17 66.8952 143.28 66.9702H144.78C145.56 66.9702 145.77 65.6202 144.87 65.6052H143.76C143.672 62.9326 143.818 60.2575 144.195 57.6102C144.3 56.8752 143.235 56.7702 143.085 57.4602C142.425 60.6852 143.085 58.8402 142.5 56.4552C143.547 56.0797 144.693 56.0797 145.74 56.4552C145.41 57.6578 145.345 58.9177 145.549 60.148C145.754 61.3782 146.223 62.5492 146.925 63.5802C147.459 64.2727 148.137 64.8422 148.91 65.2501C149.684 65.6581 150.537 65.895 151.41 65.9448C152.283 65.9946 153.157 65.8561 153.972 65.5387C154.788 65.2213 155.525 64.7324 156.135 64.1052C157.608 62.4607 158.393 60.3122 158.325 58.1052H158.61C158.79 59.4102 159.06 61.2102 160.44 61.1052C160.29 66.2352 160.74 75.0252 156.675 78.2352C156.15 78.6552 155.55 79.1352 155.475 79.6152C155.287 81.2047 155.287 82.8107 155.475 84.4002C155.91 88.5552 148.635 96.7752 144.87 100.285C137.61 90.4152 135.525 89.4402 135.54 80.7852C135.54 79.9152 135.435 79.7802 134.835 79.4802C128.76 76.5402 129.315 68.0652 128.505 60.8052ZM134.115 83.9052C134.28 88.5102 137.895 94.7352 144.27 101.44C145.56 103.12 156.96 89.1252 156.735 86.0952V83.5602C187.44 87.1752 209.445 104.845 212.955 128.665C200.205 126.16 184.095 129.1 181.365 129.625C180.194 122.165 177.988 114.905 174.81 108.055C174.756 107.922 174.652 107.815 174.52 107.759C174.387 107.703 174.238 107.701 174.105 107.755C173.972 107.809 173.865 107.913 173.809 108.046C173.753 108.178 173.751 108.327 173.805 108.46C176.563 115.221 178.575 122.263 179.805 129.46C171.915 121.15 159.915 117.46 143.19 118.21C133.123 118.677 123.123 120.098 113.325 122.455C114.109 117.881 115.976 113.561 118.77 109.855C118.831 109.743 118.85 109.613 118.822 109.489C118.794 109.365 118.722 109.254 118.62 109.179C118.517 109.104 118.39 109.069 118.263 109.08C118.136 109.091 118.018 109.148 117.93 109.24C114.778 113.135 112.709 117.791 111.93 122.74C101.055 125.349 90.4932 129.126 80.4299 134.005C81.8099 104.62 108.975 88.8702 134.115 83.9052ZM69.0599 56.1252C69.0445 57.5494 69.1297 58.973 69.3149 60.3852C63.9149 60.5202 55.3349 62.6202 48.9449 64.6002C48.7799 63.2802 48.4049 60.8802 48.3899 59.4552C54.8195 56.3908 61.9932 55.2351 69.0599 56.1252ZM64.2899 64.1802C61.2899 69.2802 61.9349 70.1802 60.9299 70.1802C60.8171 70.1871 60.7043 70.1667 60.6011 70.1209C60.4978 70.0751 60.407 70.0051 60.3365 69.9169C60.2659 69.8287 60.2175 69.7248 60.1955 69.614C60.1735 69.5032 60.1784 69.3887 60.2099 69.2802C61.5749 64.1202 62.8799 63.1602 63.5399 63.0402C63.6837 63.0109 63.8331 63.0254 63.9687 63.0817C64.1043 63.1381 64.2199 63.2338 64.3006 63.3564C64.3813 63.4791 64.4234 63.6231 64.4215 63.77C64.4196 63.9168 64.3737 64.0597 64.2899 64.1802ZM59.6549 65.3052C59.0999 66.2202 58.9649 67.4952 58.1549 67.3002C57.3449 67.1052 57.9299 65.2752 58.4099 64.3002C58.8899 63.3252 59.3099 63.3102 59.5949 63.3852C59.7555 63.4289 59.8983 63.5218 60.0033 63.651C60.1082 63.7802 60.17 63.939 60.1799 64.1052C60.1211 64.5466 59.9391 64.9625 59.6549 65.3052ZM48.4949 68.3052C48.3299 68.6952 48.3149 69.8952 47.5049 69.8952C47.3472 69.9013 47.1921 69.8544 47.0643 69.7619C46.9365 69.6695 46.8434 69.5368 46.7999 69.3852C46.7205 68.3358 47.0542 67.297 47.7299 66.4902C47.8692 66.3657 48.0444 66.2884 48.2303 66.2696C48.4162 66.2507 48.6033 66.2912 48.7649 66.3852C49.1249 66.6252 49.0499 67.2552 48.4949 68.2602V68.3052ZM49.0499 71.8002C50.4149 66.8952 51.1949 66.1752 51.6599 66.0702C51.7554 66.0482 51.8553 66.0533 51.9481 66.0852C52.0409 66.117 52.1229 66.1741 52.1849 66.2502C52.3888 66.4865 52.4912 66.7938 52.4699 67.1052L50.4899 72.2202C50.4282 72.4111 50.2932 72.5698 50.1146 72.6612C49.9359 72.7526 49.7283 72.7694 49.5374 72.7077C49.3464 72.646 49.1878 72.511 49.0963 72.3324C49.0049 72.1538 48.9882 71.9462 49.0499 71.7552V71.8002ZM50.5499 74.0652C53.4299 73.2252 54.3599 73.4652 54.0449 69.0852C53.9399 67.8402 53.6999 65.0052 54.9599 65.0502C55.9799 65.0502 56.0099 69.7902 57.5249 71.2602C59.0399 72.7302 61.0049 71.6952 62.6549 71.2602C67.1549 70.0302 66.1649 68.1102 65.8349 62.1552L69.6149 61.8552C71.3099 70.6452 73.5899 64.0602 75.1199 63.0702C76.0949 62.4552 76.9349 63.8052 77.1149 64.8402C77.4599 67.0602 75.6149 69.4902 76.0049 72.7452C76.8888 77.4564 78.4024 82.0274 80.5049 86.3352C77.2199 92.5752 67.7849 98.3352 63.5849 100.615C61.8149 94.1952 61.6649 85.7652 60.5849 85.7952C55.6049 85.8252 52.3349 82.0602 50.4899 74.0202L50.5499 74.0652ZM60.4199 90.7152C60.6899 92.9802 61.7999 102.715 63.4199 101.905C67.4999 99.9852 79.9199 91.8252 81.6899 86.5752C84.3149 87.1752 92.5049 85.5852 105.225 93.2502C95.8383 98.8569 88.3063 107.098 83.5649 116.95C71.4299 115.45 56.4149 113.575 43.7999 120.235C47.6549 111.145 49.9649 110.245 48.8699 109.525C48.8132 109.486 48.7492 109.459 48.6819 109.446C48.6145 109.433 48.5452 109.433 48.4779 109.447C48.4107 109.461 48.347 109.488 48.2906 109.528C48.2342 109.567 48.1863 109.617 48.1499 109.675C47.7599 110.26 42.2849 119.305 42.1499 121.15C40.0349 122.44 35.5199 125.74 34.1699 128.335C28.6554 128.443 23.2817 130.095 18.6599 133.105C23.2199 115.45 37.6349 100.795 60.3599 90.6702L60.4199 90.7152ZM21.5249 156.22C15.7949 150.22 17.0249 140.185 18.2099 134.68C32.8499 125.065 52.1999 129.175 75.7499 146.92C67.8299 150.31 33.2249 168.355 21.5249 156.22ZM35.6849 128.305C47.5949 115.12 64.8149 115.96 82.9499 118.195C78.2999 128.92 77.8949 140.245 81.7799 149.485C68.2799 139.375 52.3349 128.26 35.6849 128.26V128.305ZM103.005 162.805C88.2299 162.805 80.2949 149.83 80.5049 135.43C101.505 125.995 119.85 121.165 139.95 119.77C158.31 118.495 170.67 121.84 178.77 130.27C139.2 139.135 122.865 162.76 103.005 162.76V162.805ZM193.725 161.155C179.04 164.47 154.725 155.8 137.445 148.885C164.985 132.625 189.765 126.49 213.15 130.135C214.995 146.89 208.095 157.9 193.725 161.155ZM214.53 138.445C215.309 129.772 213.475 121.063 209.265 113.44C225.375 109.27 238.98 111.7 250.8 120.85C235.275 122.005 219.63 134.125 214.515 138.445H214.53ZM255.33 150.1C246.15 150.1 226.83 141.1 217.935 137.47C227.445 130.27 238.71 122.635 252.27 122.095C257.567 121.768 262.851 122.927 267.525 125.44C271.545 139 269.535 150.01 255.315 150.1H255.33Z" fill="black"/>
</svg>
