<svg width="344" height="344" viewBox="0 0 344 344" fill="none" xmlns="http://www.w3.org/2000/svg">
<g clip-path="url(#clip0_100_54)">
<path d="M266.68 155.404C265.994 155.404 265.994 156.679 266.68 156.679C268.314 156.679 291.076 156.303 292.988 155.927C293.162 155.901 293.321 155.813 293.436 155.68C293.551 155.546 293.614 155.376 293.614 155.2C293.614 155.024 293.551 154.854 293.436 154.72C293.321 154.587 293.162 154.499 292.988 154.473C286.991 153.688 273.282 155.273 266.68 155.404ZM275.798 188.77C275.047 188.77 275.177 190.029 275.896 190.061C281.223 190.241 289.524 189.963 294.965 189.718C295.962 189.718 296.076 188.084 294.965 188.084C288.87 188.117 281.909 188.198 275.798 188.77ZM276.501 132.414C276.342 132.421 276.192 132.485 276.077 132.594C275.963 132.704 275.892 132.851 275.878 133.009C275.864 133.167 275.908 133.325 276.001 133.452C276.095 133.58 276.232 133.67 276.386 133.705C279.311 134.064 288.805 134.44 291.664 133.231C291.811 133.158 291.929 133.04 292.003 132.894C292.076 132.748 292.099 132.582 292.07 132.421C292.04 132.261 291.959 132.114 291.839 132.004C291.718 131.893 291.565 131.825 291.403 131.809C287.612 131.58 281.534 132.79 276.501 132.414ZM257.841 163.983C271.631 163.787 287.253 162.822 301.174 161.548C302.04 161.548 301.959 159.914 301.06 159.914C287.367 160.257 271.37 161.156 257.759 162.561C257.57 162.572 257.394 162.657 257.268 162.798C257.143 162.939 257.078 163.124 257.089 163.313C257.1 163.501 257.185 163.678 257.326 163.803C257.467 163.929 257.652 163.993 257.841 163.983ZM277.612 91.2043C281.452 90.9101 285.292 90.6814 289.05 90.2239C290.128 90.1095 289.851 88.5899 288.788 88.5899C284.965 88.884 281.141 89.3742 277.35 89.8154C276.468 89.9134 276.713 91.2696 277.612 91.2043ZM255.193 125.289C254.376 125.289 254.344 126.678 255.193 126.744C264.431 127.174 273.687 126.527 282.775 124.816C283.805 124.636 283.641 123.002 282.596 123.182C273.546 124.725 264.373 125.431 255.193 125.289ZM285.602 99.0311C287.024 99.3743 287.236 97.054 285.929 97.2827C279.552 98.3167 273.088 98.7162 266.631 98.4756C265.765 98.4756 265.569 99.7337 266.452 99.8318C272.841 100.473 279.289 100.204 285.602 99.0311ZM250.21 163.215C248.935 162.724 243.053 163.541 241.403 163.721C240.602 163.721 240.569 165.012 241.403 164.996L248.086 164.783C251.174 164.669 251.157 163.59 250.21 163.215ZM256.958 233.918C255.586 233.591 245.831 234.326 244.229 234.424C243.38 234.424 243.543 235.732 244.393 235.715C246.125 235.715 255.618 235.715 257.122 235.241C257.792 235.013 257.563 234.049 256.958 233.918ZM244.213 227.006C248.805 227.218 260.177 227.414 264.769 226.32C264.876 226.319 264.982 226.296 265.08 226.251C265.177 226.207 265.265 226.143 265.336 226.063C265.407 225.983 265.461 225.889 265.494 225.786C265.527 225.684 265.538 225.576 265.526 225.47C265.515 225.363 265.481 225.26 265.427 225.167C265.374 225.074 265.301 224.994 265.214 224.931C265.128 224.867 265.029 224.823 264.924 224.801C264.819 224.778 264.71 224.778 264.605 224.8C257.89 224.8 251.664 225.928 244.409 225.633C243.543 225.601 243.314 226.957 244.213 227.006ZM260.063 197.953C261.043 197.774 260.961 196.319 259.932 196.319C252.677 197.055 251.157 197.235 243.723 197.529C243.004 197.529 242.922 198.77 243.723 198.819C249.185 199.182 254.67 198.891 260.063 197.953ZM270.128 187.676C261.239 188.002 252.007 189.506 242.726 189.832C242.56 189.858 242.409 189.942 242.3 190.069C242.19 190.197 242.13 190.359 242.13 190.527C242.13 190.695 242.19 190.857 242.3 190.984C242.409 191.112 242.56 191.196 242.726 191.221C250.422 191.221 262.808 190.862 270.308 189.195C270.464 189.126 270.595 189.008 270.679 188.86C270.764 188.711 270.799 188.539 270.779 188.369C270.759 188.199 270.685 188.04 270.568 187.915C270.451 187.79 270.297 187.706 270.128 187.676ZM300.406 229.914C300.276 229.914 291.305 230.65 289.769 230.601C289.623 230.627 289.49 230.699 289.389 230.807C289.288 230.915 289.225 231.053 289.208 231.2C289.192 231.346 289.223 231.495 289.297 231.622C289.372 231.75 289.486 231.85 289.622 231.908C291.452 232.251 299.164 232.382 300.749 231.042C300.829 230.954 300.885 230.847 300.911 230.731C300.937 230.615 300.932 230.494 300.898 230.381C300.863 230.267 300.8 230.165 300.714 230.083C300.627 230.001 300.522 229.943 300.406 229.914ZM303.298 194.277C291.975 195.012 279.328 195.437 268.053 196.401C267.171 196.401 267.334 197.725 268.184 197.774C274.279 197.953 295.962 196.842 303.445 195.895C303.552 195.886 303.656 195.857 303.752 195.808C303.847 195.759 303.931 195.691 304 195.609C304.068 195.527 304.12 195.431 304.151 195.329C304.182 195.226 304.192 195.119 304.181 195.012C304.16 194.798 304.056 194.601 303.891 194.463C303.725 194.326 303.513 194.259 303.298 194.277ZM260.765 157.12C260.982 157.12 261.19 157.034 261.343 156.881C261.496 156.727 261.582 156.519 261.582 156.303C261.582 156.086 261.496 155.878 261.343 155.725C261.19 155.572 260.982 155.486 260.765 155.486C253.723 155.666 246.615 155.715 239.523 156.254C239.371 156.288 239.235 156.373 239.137 156.494C239.039 156.616 238.986 156.768 238.986 156.924C238.986 157.08 239.039 157.231 239.137 157.353C239.235 157.475 239.371 157.56 239.523 157.594C246.648 157.724 253.723 157.349 260.765 157.12ZM288.625 223.084C286.141 223.084 277.187 223.722 275.063 224.097C274.377 224.212 274.279 225.339 275.063 225.372C277.367 225.486 286.272 224.914 288.854 224.686C289.851 224.718 289.638 223.084 288.625 223.084ZM283.854 232.251L263.314 233.558C262.383 233.558 262.612 234.98 263.527 234.931C267.514 234.751 280.341 234.245 283.936 233.754C284.736 233.656 284.753 232.251 283.854 232.251ZM269.148 90.2239C263.118 89.5376 244.197 90.6814 237.775 91.335C236.893 91.4167 236.827 92.7892 237.775 92.7075C248.331 92.0213 258.609 91.7925 269.164 91.8252C269.348 91.7858 269.514 91.684 269.631 91.5368C269.749 91.3897 269.812 91.2063 269.811 91.0178C269.809 90.8293 269.742 90.6473 269.621 90.5026C269.5 90.3579 269.333 90.2594 269.148 90.2239ZM270.896 134.326C271.926 134.178 271.55 132.692 270.52 132.692C260.003 133.89 249.422 134.435 238.837 134.326C238.684 134.35 238.544 134.428 238.443 134.547C238.342 134.665 238.287 134.815 238.287 134.971C238.287 135.126 238.342 135.277 238.443 135.395C238.544 135.513 238.684 135.592 238.837 135.616C249.541 136.132 260.269 135.7 270.896 134.326ZM259.801 100.11C259.909 100.099 260.013 100.068 260.109 100.017C260.204 99.9663 260.288 99.8971 260.356 99.8136C260.425 99.73 260.476 99.6337 260.507 99.5302C260.538 99.4268 260.548 99.3182 260.537 99.2109C260.526 99.1034 260.495 98.999 260.444 98.9037C260.393 98.8084 260.324 98.7241 260.241 98.6558C260.157 98.5874 260.061 98.5363 259.957 98.5053C259.854 98.4744 259.745 98.4643 259.638 98.4756C252.432 99.3743 245.602 99.4069 238.494 100.028C237.742 100.11 237.661 101.335 238.494 101.368C245.618 101.483 252.74 101.062 259.801 100.11ZM239.556 125.976C238.739 125.976 238.723 127.267 239.654 127.299C242.587 127.576 245.535 127.652 248.478 127.528C248.61 127.469 248.723 127.373 248.802 127.251C248.881 127.129 248.923 126.987 248.923 126.842C248.923 126.697 248.881 126.555 248.802 126.433C248.723 126.311 248.61 126.215 248.478 126.156C248.184 125.992 241.059 125.976 239.556 125.976ZM219.164 135.388C220.111 135.388 223.625 129.571 225.602 127.577C226.321 126.858 225.144 125.649 224.409 126.335C222.324 128.215 220.52 130.383 219.049 132.773L214.915 128.966C214.066 128.182 212.971 129.522 213.755 130.322C214.54 131.123 217.955 135.388 219.164 135.388ZM207.987 108.704C214.687 109.097 221.647 108.966 229 109.015C229.523 109.015 229.834 107.561 229 90.2075C229 88.9493 228.886 88.018 228.87 87.6748C228.874 87.6242 228.867 87.5733 228.85 87.5254C228.834 87.4775 228.807 87.4338 228.772 87.397C228.298 86.8905 225.21 86.9232 218.265 87.1029C206.582 87.3807 205.291 87.299 205.291 87.9689C205.242 88.0997 205.977 108.508 207.987 108.704ZM208.445 107.495C207.628 103.132 207.039 93.9167 206.533 88.7533C211.288 89.031 222.121 88.4918 227.579 88.3611C227.579 88.3611 227.873 102.887 228.004 107.577C221.598 107.43 214.915 107.185 208.379 107.414L208.445 107.495Z" fill="black"/>
<path d="M231.254 139.652C232.627 139.113 231.025 123.884 230.797 119.881C230.786 119.799 230.745 119.723 230.682 119.668C229.702 118.819 208.966 119.946 207.921 120.028C206.875 120.11 207.921 125.796 208.1 129.669C208.476 139.309 208.917 140.142 209.408 140.208C212.97 140.714 227.986 140.927 231.254 139.652ZM208.917 121.368C215.993 120.91 223.166 120.878 229.538 120.845C229.702 124.669 229.963 135.437 230.29 138.345C223.631 139.034 216.929 139.225 210.241 138.917C210.519 136.482 209.163 124.129 208.917 121.368ZM222.218 162.626L226.009 159.195C226.12 159.008 226.168 158.791 226.148 158.575C226.128 158.359 226.04 158.155 225.897 157.992C225.754 157.829 225.562 157.715 225.351 157.667C225.139 157.619 224.918 157.639 224.718 157.724C223.166 158.68 221.758 159.852 220.535 161.205L217.136 158.067C216.952 157.896 216.708 157.805 216.456 157.814C216.205 157.824 215.968 157.932 215.797 158.117C215.625 158.301 215.534 158.545 215.544 158.797C215.553 159.048 215.661 159.285 215.846 159.456L219.114 162.724C216.172 165.829 214.882 167.773 215.176 168.656C215.47 169.538 216.532 169.146 216.81 168.754C217.953 167.349 219.244 165.747 220.633 164.26C222.01 165.764 223.538 167.122 225.192 168.313C225.363 168.357 225.542 168.354 225.712 168.305C225.881 168.256 226.034 168.162 226.154 168.033C226.275 167.904 226.358 167.746 226.396 167.573C226.434 167.401 226.424 167.222 226.369 167.054C225.138 165.442 223.748 163.958 222.218 162.626ZM223.084 92.5768C220.474 94.8594 218.342 97.6361 216.81 100.747C215.579 99.2733 214.162 97.966 212.594 96.8578C211.63 96.1879 210.388 97.4624 211.336 98.1814C213.2 99.8287 214.942 101.609 216.548 103.508C216.973 103.949 217.382 103.721 217.741 103.247C219.52 99.78 221.715 96.5426 224.277 93.6062C225.061 92.7402 223.934 91.7761 223.084 92.5768ZM222.561 199.261C223.411 198.672 226.646 192.431 228.525 190.306C229.261 189.489 227.986 188.362 227.153 189.228C224.916 191.532 222.998 194.126 221.45 196.94L217.643 193.672C216.81 192.97 215.699 194.228 216.565 195.061C217.431 195.895 221.156 200.47 222.561 199.261ZM235.029 220.208C234.408 218.983 212.055 220.208 211.842 220.208C211.794 220.214 211.747 220.233 211.707 220.261C211.667 220.29 211.635 220.328 211.614 220.372C210.862 221.581 211.614 241.238 212.153 243.068C212.79 245.29 234.457 243.444 235.535 243.542C235.568 243.549 235.601 243.549 235.634 243.542C235.667 243.535 235.697 243.521 235.724 243.5C235.75 243.48 235.772 243.454 235.787 243.425C235.803 243.395 235.811 243.363 235.813 243.33C236.156 240.83 235.11 220.372 235.029 220.208ZM212.888 221.401C219.424 221.679 227.153 221.271 233.787 221.254C233.885 223.983 234.473 239.996 234.555 242.153C227.3 242.48 221.205 242.366 213.476 242.153C213.558 239.424 212.986 223.885 212.888 221.45V221.401Z" fill="black"/>
<path d="M220.78 231.99C221.94 231.99 227.871 232.398 228.345 232.137C228.47 232.066 228.577 231.967 228.657 231.848C228.737 231.729 228.789 231.593 228.808 231.45C228.827 231.308 228.813 231.163 228.767 231.027C228.72 230.891 228.643 230.767 228.541 230.666C227.675 229.751 222.201 229.947 221.286 230.127C220.044 230.356 219.816 230.83 219.848 231.189C219.892 231.407 220.007 231.605 220.176 231.75C220.345 231.895 220.557 231.979 220.78 231.99ZM222.986 184.032C217.626 184.13 211.989 184.326 211.057 184.391C210.698 184.391 210.322 184.702 210.273 188.1C210.273 192.169 210.976 205.061 212.61 205.176C215.878 205.421 232.773 205.486 234.946 205.323C235.29 205.323 235.567 205.323 234.946 196.826C234.603 192.447 233.835 184.489 233.835 184.489C233.77 184.163 233.737 183.868 222.986 184.032ZM232.61 185.47C233.002 191.565 233.214 197.806 233.868 203.934H213.084C212.446 198.035 212.021 191.957 211.564 185.715L232.61 185.47ZM214.914 174.832C221.548 174.832 232.643 173.934 232.741 173.885C233.786 173.345 232.741 158.59 232.397 152.283C232.397 151.156 226.629 151.139 221.842 151.319C219.75 151.319 209.358 151.875 209.391 153.362C209.946 175.241 209.816 174.179 210.224 174.408C211.753 174.807 213.338 174.95 214.914 174.832ZM211.466 173.198C211.09 166.76 210.959 159.93 210.698 153.59C217.483 152.988 224.296 152.759 231.107 152.904C231.107 155.143 231.548 170.028 231.826 172.512C229.407 172.676 213.999 172.79 211.515 173.215L211.466 173.198Z" fill="black"/>
<path d="M334.195 199.015C329.914 82.5603 331.712 83.5407 330.927 82.8544C329.816 81.8087 321.238 82.4949 319.13 82.6093L318.248 64.7497C318.29 64.642 318.305 64.5257 318.293 64.4108C318.28 64.2958 318.24 64.1855 318.176 64.0893C318.112 63.9931 318.026 63.9137 317.924 63.858C317.823 63.8023 317.71 63.7719 317.594 63.7693C283.28 63.3445 247.969 65.6157 212.56 68.0177C203.018 68.6877 193.1 69.2759 183.394 70.3053C183.303 70.2907 183.21 70.2965 183.122 70.3221C183.033 70.3478 182.952 70.3927 182.883 70.4537C182.814 70.5147 182.76 70.5902 182.724 70.6747C182.688 70.7592 182.671 70.8507 182.675 70.9426C184.472 114.57 189.701 185.094 198.737 263.183C198.835 264.081 206.286 263.297 212.985 262.856C213.073 264.778 213.419 266.68 214.015 268.509C214.995 269.751 336.205 262.235 336.058 257.071C335.535 237.676 334.833 218.035 334.195 199.015ZM325.012 249.964C282.038 256.5 243.394 258.33 200.24 262.055C191.694 188.019 188.181 137.234 183.9 71.4491C197.168 70.6648 246.237 66.155 317.12 65.2236C318.885 112.724 325.454 244.735 324.963 249.964H325.012ZM119.896 137.626C118.785 137.626 118.802 139.783 119.324 140.6C119.385 140.72 119.479 140.819 119.595 140.886C119.711 140.952 119.844 140.984 119.978 140.976C120.975 140.861 120.926 137.74 119.896 137.626ZM114.063 147.071C114.766 147.25 116.661 147.365 117.102 146.711C117.723 145.796 116.04 137.495 115.828 136.907C115.784 136.787 115.699 136.686 115.588 136.623C115.477 136.56 115.347 136.538 115.222 136.562C115.096 136.585 114.983 136.653 114.902 136.752C114.822 136.851 114.779 136.975 114.782 137.103C114.782 138.59 115.452 143.639 115.713 145.747L114.079 145.845C113.96 145.896 113.858 145.981 113.785 146.088C113.713 146.196 113.674 146.323 113.672 146.453C113.67 146.582 113.706 146.71 113.776 146.82C113.845 146.929 113.945 147.017 114.063 147.071ZM118.507 134.571C118.991 134.438 119.5 134.425 119.989 134.534C120.479 134.642 120.935 134.868 121.318 135.191C121.955 135.763 123.181 134.669 121.432 133.557C120.174 132.708 117.233 132.414 117.543 133.917C117.594 134.126 117.721 134.309 117.899 134.43C118.077 134.551 118.294 134.601 118.507 134.571Z" fill="black"/>
<path d="M166.417 193.966C155.911 183.607 137.005 171.434 120.012 169.015C120.293 168.044 120.293 167.013 120.012 166.041C121.305 164.96 122.507 163.774 123.606 162.496C125.943 159.751 125.894 157.071 122.561 158.427C125.829 151.205 125.829 135.551 124.652 126.76C130.126 130.175 139.358 126.891 138.231 120.224C145.665 122.463 150.502 107.691 141.057 105.028C142.381 93.8513 128.067 92.2336 123.688 98.7533C121.221 91.5474 109.881 95.3382 110.698 100.992C105.583 95.5016 94.5375 97.4134 93.0015 104.26C88.3773 100.06 80.7465 101.842 81.4165 108.034C74.0961 104.636 70.2236 113.394 75.9099 116.204C72.2661 118.165 72.3804 126.237 77.9687 126.237C77.9687 131.629 81.2367 143.982 89.325 150.747C90.191 158.313 88.6387 162.185 85.9426 169.195C59.2758 173.247 39.0305 194.048 29.9455 219.849C19.5859 249.261 24.5042 277.039 55.2071 282.889C55.1432 286.814 54.6833 290.723 53.8345 294.556C53.8192 294.7 53.8566 294.845 53.9397 294.965C54.0228 295.084 54.1462 295.169 54.2872 295.205C54.4282 295.241 54.5773 295.225 54.7072 295.159C54.8372 295.094 54.9392 294.984 54.9947 294.85C56.0884 291.043 56.6817 287.11 56.7594 283.15C64.1561 284.249 71.7125 283.096 78.4448 279.841C85.177 276.586 90.7732 271.379 94.5048 264.898C99.2348 266.695 104.063 268.223 108.966 269.474C124.391 273.836 144.505 278.166 163.558 273.003C163.182 282.137 162.659 289.457 161.842 296.729C161.842 297.448 162.839 297.66 162.953 296.941C163.59 293.118 165.175 276.336 165.077 272.562C177.202 268.836 185.306 260.421 187.3 249.49C190.78 230.96 182.937 210.159 166.417 193.966ZM97.0212 123.59C97.446 128.361 97.0212 131.76 95.5669 133.966C95.0277 134.767 94.2107 135.6 93.5081 135.6C92.9688 135.012 89.4394 131.352 86.106 133.492C83.9328 134.914 83.8348 137.675 85.8936 141.27C87.3651 143.453 88.4179 145.891 88.9982 148.46C82.74 141.662 80.8282 135.29 79.3903 126.155C81.0513 125.856 82.5674 125.017 83.7041 123.77C86.5636 128.018 93.5571 127.169 97.0212 123.59ZM86.8904 134.571C89.0963 133.214 91.1388 134.848 93.0015 136.482C94.0963 137.446 95.8937 136.09 96.7434 134.848C98.9656 131.776 98.7695 126.678 98.4754 124.129C100.061 125.64 102.168 126.482 104.358 126.482C106.548 126.482 108.654 125.64 110.24 124.129C110.567 128.835 120.436 129.914 123.034 126.008C124.227 134.178 124.799 151.842 120.845 159.244C117.577 160.682 110.142 163.966 106.449 162.512C103.279 161.254 101.678 156.417 97.9852 154.342C95.5015 152.969 93.3773 154.522 95.1094 157.3C99.4885 164.26 99.0963 166.907 95.6323 174.064C92.5962 173.237 89.757 171.809 87.2825 169.865C90.8773 164.718 91.8577 155.535 90.959 149.424C90.1584 143.982 89.325 144.309 87.1681 140.29C86.1714 138.639 85.289 135.584 86.8904 134.571ZM114.456 167.528C114.326 167.589 114.222 167.695 114.164 167.827C114.107 167.958 114.1 168.106 114.144 168.243C114.188 168.38 114.281 168.496 114.404 168.569C114.528 168.642 114.674 168.667 114.815 168.639C116.217 168.389 117.545 167.831 118.704 167.005C118.798 168.529 118.397 170.042 117.561 171.319C117.266 171.728 117.789 172.953 118.851 171.434C118.77 175.943 116.466 181.515 112.038 183.705C109.036 183.162 106.18 182.004 103.649 180.302C101.118 178.601 98.967 176.394 97.3316 173.819C102.234 165.42 97.9199 159.113 96.4819 156.499C95.6813 154.996 96.0898 154.767 97.397 155.616C100.485 157.577 103.198 163.051 106.188 163.786C111.825 165.143 118.77 161.744 122.168 160.224C123.933 159.424 124.963 158.884 122.838 161.548C119.995 165.061 118.378 165.796 114.456 167.528ZM45.3051 237.267C45.2459 237.4 45.2367 237.55 45.279 237.689C45.3214 237.828 45.4124 237.948 45.5355 238.025C45.6586 238.102 45.8055 238.133 45.9493 238.111C46.093 238.089 46.224 238.016 46.3181 237.905C60.6483 215.323 84.3577 199.653 96.5636 175.486C98.4591 179.702 106.564 185.127 111.564 185.127C111.564 189.195 111.155 194.032 110.73 198.672C105.828 197.545 92.5767 193.395 90.191 187.97C89.9133 187.3 88.8348 187.757 89.0963 188.427C91.3348 194.489 105.158 199.359 110.583 200.388C109.437 212.597 107.168 224.675 103.802 236.467C101.335 245.29 98.165 255.96 93.5898 263.853C89.9422 270.341 84.3612 275.53 77.6245 278.697C70.8879 281.863 63.3312 282.849 56.0078 281.516C25.8441 276.222 21.3016 249.016 31.5468 220.274C41.122 193.346 62.0862 174.391 86.2694 170.796C88.8982 172.735 91.7717 174.317 94.8153 175.502C82.5603 199.146 59.1941 214.669 45.3051 237.267ZM105.207 237.153C121.085 230.462 137.955 226.426 155.143 225.209C160.045 224.882 164.947 224.898 169.849 224.898C170.568 224.898 170.584 223.722 169.849 223.722C166.515 223.49 163.172 223.43 159.832 223.542C159.031 217.006 147.25 197.937 143.247 192.659C143.145 192.562 143.011 192.506 142.87 192.499C142.729 192.493 142.59 192.537 142.479 192.624C142.369 192.711 142.293 192.835 142.266 192.974C142.239 193.112 142.262 193.256 142.332 193.378C150.355 204.62 156.842 218.934 158.133 223.607C143.77 224.146 121.613 227.545 105.665 235.356C107.168 229.849 112.985 207.137 113.116 184.702C117.61 182.692 120.812 175.421 120.436 170.535C137.378 174.393 152.917 182.878 165.322 195.045C179.881 209.31 188.803 227.725 186.058 247.741C184.604 259.179 176.483 268.036 164.358 271.255C143.459 276.974 121.956 272.006 101.319 265.601C99.3207 264.929 97.2857 264.372 95.2238 263.934C99.3999 255.347 102.743 246.379 105.207 237.153Z" fill="black"/>
<path d="M104.406 131.956C104.828 131.332 105.391 130.816 106.05 130.45C106.708 130.084 107.444 129.878 108.197 129.848C109.389 129.848 109.324 128.051 108.197 128.214C107.226 128.316 106.292 128.639 105.465 129.157C104.638 129.675 103.94 130.375 103.425 131.204C103 131.874 103.948 132.61 104.406 131.956ZM108.262 136.482C107.592 137.021 107.641 139.75 108.654 139.75C108.886 139.726 109.102 139.624 109.269 139.461C109.435 139.297 109.541 139.083 109.569 138.851C109.945 137.43 108.981 135.976 108.262 136.482ZM106.824 149.979C106.793 149.851 106.724 149.736 106.626 149.649C106.527 149.562 106.404 149.508 106.274 149.494C106.143 149.479 106.011 149.506 105.896 149.569C105.781 149.633 105.689 149.73 105.631 149.848C105.468 150.077 105.157 150.78 105.844 152.201C106.309 153.169 107.113 153.933 108.104 154.348C109.094 154.764 110.203 154.802 111.219 154.456C111.357 154.401 111.47 154.298 111.537 154.166C111.603 154.033 111.619 153.881 111.58 153.738C111.542 153.595 111.453 153.471 111.329 153.389C111.205 153.308 111.056 153.275 110.909 153.296C108.589 153.754 107.249 152.283 106.824 149.979Z" fill="black"/>
<path opacity="0.2" d="M85.4022 100.799C96.2539 100.687 133.251 90.5937 178.815 90.5357C224.38 90.4777 292.4 90.3488 300.228 100.799C308.056 111.25 180.445 142.26 141.161 155.565C101.877 168.87 92.0449 173.945 85.4022 177.914C75.2221 183.995 70.953 189.39 68.7669 193.49C67.7163 195.46 67.8517 197.685 68.5425 199.39C69.2333 201.094 70.7482 202.331 72.7649 203.065C77.0713 204.632 83.9403 203.752 120.42 196.521C152.837 190.096 213.179 176.592 252.217 169.098C291.254 161.604 307.08 160.151 312.599 161.425C318.119 162.7 312.851 166.746 266.31 189.324C219.769 211.903 65.2386 241.348 68.5425 272.041C72.7649 311.268 213.505 309.273 280.882 285.339" stroke="#4378FF" stroke-opacity="0.29" stroke-width="42.6261" stroke-linecap="round"/>
</g>
<defs>
<clipPath id="clip0_100_54">
<rect width="309.6" height="309.6" fill="white" transform="translate(17.2 17.2002)"/>
</clipPath>
</defs>
</svg>
